<svg width="88" height="34" viewBox="0 0 88 34" fill="none" xmlns="http://www.w3.org/2000/svg">
<path d="M13.2967 18.6896L8.44298 2.23705H0V25.8567H5.48604V10.2496L10.1069 25.6715L16.1871 25.662L16.2632 25.4435L20.6843 10.2496V25.8567H26.5935V2.23705H18.3644L13.2967 18.6896Z" fill="#FFD14E"/>
<path d="M68.3853 7.71807C63.6076 8.34026 57.6082 5.83724 53.3106 8.478C49.4742 10.8338 49.8925 16.2578 53.1823 18.9081V19.5255C50.734 19.9245 50.9717 23.2017 52.7639 24.3891V25.0113C47.9577 25.6715 48.4996 31.7367 52.7687 33.2328C57.1423 34.7669 67.097 33.9167 67.9194 28.1365C69.0509 20.2332 62.0341 22.1235 56.8095 21.2496L56.5575 19.9482C60.4415 20.3662 65.9561 19.5065 66.2793 14.662C66.3459 13.693 65.7564 11.6602 65.8515 11.532C66.2888 10.9573 69.4502 10.9525 68.3806 7.71332L68.3853 7.71807ZM61.8392 26.6974C62.4191 26.8779 62.7234 28.2363 62.4096 28.754C61.668 29.9841 51.8797 30.7868 55.5069 26.6974H61.8392ZM59.3338 11.0665C60.7743 12.1494 60.4795 14.2345 59.814 15.7971C59.7189 15.9966 59.3814 16.5903 58.7586 16.5808C55.1409 16.4715 56.6003 9.0147 59.3338 11.0665Z" fill="#FFD14E"/>
<path d="M38.6066 7.28111C31.5898 7.60883 29.5694 12.9759 30.4299 19.2833C31.2476 25.2678 37.5703 26.8684 42.7378 26.1702C47.2065 25.567 46.5314 24.4936 46.4316 20.3757C43.3938 21.8766 36.8001 23.1732 36.7288 18.2669H47.7057C48.2952 11.5985 45.9039 6.94389 38.6114 7.28111H38.6066ZM36.7146 13.8308C37.3801 10.4491 42.1008 10.9858 41.7918 14.415H36.7479C36.6575 14.358 36.6385 14.2107 36.7146 13.8308Z" fill="#FFD14E"/>
<path d="M77.2467 1.1874H70.9144V25.8567H77.2467V1.1874Z" fill="#FFD14E"/>
<path d="M87.8004 7.72281H81.4681V25.8567H87.8004V7.72281Z" fill="#FFD14E"/>
<path d="M84.6295 5.671C86.4909 5.671 88 4.4015 88 2.8355C88 1.2695 86.4909 0 84.6295 0C82.768 0 81.2589 1.2695 81.2589 2.8355C81.2589 4.4015 82.768 5.671 84.6295 5.671Z" fill="#FFD14E"/>
</svg>
